<mxfile host="app.diagrams.net" agent="Mozilla/5.0 (Windows NT 10.0; Win64; x64) AppleWebKit/537.36 (KHTML, like Gecko) Chrome/128.0.0.0 Safari/537.36" version="24.7.8">
  <diagram name="Page-1" id="UBP-uWiI--6syODnmPw_">
    <mxGraphModel dx="1450" dy="667" grid="0" gridSize="10" guides="1" tooltips="1" connect="1" arrows="1" fold="1" page="0" pageScale="1" pageWidth="850" pageHeight="1100" math="0" shadow="0">
      <root>
        <mxCell id="0" />
        <mxCell id="1" parent="0" />
        <mxCell id="Ju56_oCGw6FusisEgO2G-21" style="edgeStyle=none;curved=1;rounded=0;orthogonalLoop=1;jettySize=auto;html=1;fontSize=12;startSize=8;endSize=8;" edge="1" parent="1" source="Ju56_oCGw6FusisEgO2G-14" target="Ju56_oCGw6FusisEgO2G-17">
          <mxGeometry relative="1" as="geometry" />
        </mxCell>
        <mxCell id="Ju56_oCGw6FusisEgO2G-24" value="t=40" style="edgeLabel;html=1;align=center;verticalAlign=middle;resizable=0;points=[];fontSize=12;" vertex="1" connectable="0" parent="Ju56_oCGw6FusisEgO2G-21">
          <mxGeometry x="-0.122" y="-2" relative="1" as="geometry">
            <mxPoint as="offset" />
          </mxGeometry>
        </mxCell>
        <mxCell id="Ju56_oCGw6FusisEgO2G-22" style="edgeStyle=orthogonalEdgeStyle;rounded=0;orthogonalLoop=1;jettySize=auto;html=1;entryX=0;entryY=0.5;entryDx=0;entryDy=0;fontSize=12;startSize=8;endSize=8;" edge="1" parent="1" source="Ju56_oCGw6FusisEgO2G-14" target="Ju56_oCGw6FusisEgO2G-18">
          <mxGeometry relative="1" as="geometry">
            <Array as="points">
              <mxPoint x="-108" y="396" />
            </Array>
          </mxGeometry>
        </mxCell>
        <mxCell id="Ju56_oCGw6FusisEgO2G-23" value="t=10" style="edgeLabel;html=1;align=center;verticalAlign=middle;resizable=0;points=[];fontSize=12;" vertex="1" connectable="0" parent="Ju56_oCGw6FusisEgO2G-22">
          <mxGeometry x="-0.1671" y="-1" relative="1" as="geometry">
            <mxPoint as="offset" />
          </mxGeometry>
        </mxCell>
        <mxCell id="Ju56_oCGw6FusisEgO2G-14" value="A" style="rounded=1;whiteSpace=wrap;html=1;" vertex="1" parent="1">
          <mxGeometry x="-168" y="453" width="120" height="60" as="geometry" />
        </mxCell>
        <mxCell id="Ju56_oCGw6FusisEgO2G-15" value="E" style="rounded=1;whiteSpace=wrap;html=1;" vertex="1" parent="1">
          <mxGeometry x="556" y="453" width="120" height="60" as="geometry" />
        </mxCell>
        <mxCell id="Ju56_oCGw6FusisEgO2G-16" value="D" style="rounded=1;whiteSpace=wrap;html=1;" vertex="1" parent="1">
          <mxGeometry x="356" y="453" width="120" height="60" as="geometry" />
        </mxCell>
        <mxCell id="Ju56_oCGw6FusisEgO2G-20" style="edgeStyle=orthogonalEdgeStyle;rounded=0;orthogonalLoop=1;jettySize=auto;html=1;entryX=0.5;entryY=1;entryDx=0;entryDy=0;fontSize=12;startSize=8;endSize=8;" edge="1" parent="1" source="Ju56_oCGw6FusisEgO2G-17" target="Ju56_oCGw6FusisEgO2G-16">
          <mxGeometry relative="1" as="geometry">
            <Array as="points">
              <mxPoint x="212" y="555" />
              <mxPoint x="416" y="555" />
            </Array>
          </mxGeometry>
        </mxCell>
        <mxCell id="Ju56_oCGw6FusisEgO2G-25" value="t=60" style="edgeLabel;html=1;align=center;verticalAlign=middle;resizable=0;points=[];fontSize=12;" vertex="1" connectable="0" parent="Ju56_oCGw6FusisEgO2G-20">
          <mxGeometry x="-0.0361" y="-1" relative="1" as="geometry">
            <mxPoint as="offset" />
          </mxGeometry>
        </mxCell>
        <mxCell id="Ju56_oCGw6FusisEgO2G-17" value="C" style="rounded=1;whiteSpace=wrap;html=1;" vertex="1" parent="1">
          <mxGeometry x="152" y="453" width="120" height="60" as="geometry" />
        </mxCell>
        <mxCell id="Ju56_oCGw6FusisEgO2G-18" value="B" style="rounded=1;whiteSpace=wrap;html=1;" vertex="1" parent="1">
          <mxGeometry x="-7" y="366" width="120" height="60" as="geometry" />
        </mxCell>
      </root>
    </mxGraphModel>
  </diagram>
</mxfile>
